<svg width="112" height="37" viewBox="0 0 112 37" fill="none" xmlns="http://www.w3.org/2000/svg">
<path d="M33.5999 8.58307e-06V6.96001H37.1999V14.16H33.5999V21.36H24.6239V8.58307e-06H33.5999ZM13.2479 7.20001H0.959946V0.480008H21.7439L21.2639 12.336H13.2479V7.20001ZM10.9439 9.60001V14.256H23.1839V20.88H-5.43594e-05V14.256H2.87995V9.60001H10.9439ZM33.5999 29.568C33.5999 31.68 32.8959 33.36 31.4879 34.608C30.0799 35.856 28.2719 36.48 26.0639 36.48H8.49595C6.28795 36.48 4.47995 35.856 3.07195 34.608C1.66395 33.36 0.959946 31.68 0.959946 29.568C0.959946 27.456 1.66395 25.776 3.07195 24.528C4.47995 23.28 6.28795 22.656 8.49595 22.656H26.0639C28.2719 22.656 30.0799 23.28 31.4879 24.528C32.8959 25.776 33.5999 27.456 33.5999 29.568ZM23.6639 28.656H10.8959C10.6399 28.656 10.4159 28.752 10.2239 28.944C10.0639 29.104 9.98395 29.312 9.98395 29.568C9.98395 29.824 10.0639 30.048 10.2239 30.24C10.4159 30.4 10.6399 30.48 10.8959 30.48H23.6639C23.9199 30.48 24.1279 30.4 24.2879 30.24C24.4799 30.048 24.5759 29.824 24.5759 29.568C24.5759 29.312 24.4799 29.104 24.2879 28.944C24.1279 28.752 23.9199 28.656 23.6639 28.656ZM62.8541 7.68001H39.2381V0.480008H71.8781L71.3981 22.08H62.8541V7.68001ZM56.5661 27.84H72.8381V35.04H38.2781V27.84H47.5421V14.88H56.5661V27.84ZM101.367 7.68001H77.7506V0.480008H110.391L109.911 22.08H101.367V7.68001ZM95.0786 27.84H111.351V35.04H76.7906V27.84H86.0546V14.88H95.0786V27.84Z" fill="white"/>
</svg>
